<?xml version="1.0" standalone="no"?>
<!DOCTYPE svg PUBLIC "-//W3C//DTD SVG 20010904//EN"
 "http://www.w3.org/TR/2001/REC-SVG-20010904/DTD/svg10.dtd">
<svg version="1.0" xmlns="http://www.w3.org/2000/svg"
 width="250.000000pt" height="250.000000pt" viewBox="0 0 250.000000 250.000000"
 preserveAspectRatio="xMidYMid meet">
<metadata>
Created by potrace 1.11, written by Peter Selinger 2001-2013
</metadata>
<g transform="translate(0.000000,250.000000) scale(0.100000,-0.100000)"
fill="#000000" stroke="none">
<path d="M1290 2256 l-112 -135 -46 5 c-26 3 -112 11 -192 19 l-145 13 -172
-45 -171 -45 -106 -153 -106 -154 0 -203 c-1 -181 18 -423 45 -584 5 -26 26
-45 155 -133 l150 -102 62 6 63 5 -55 -20 c-30 -11 -62 -23 -70 -27 -8 -3 -17
-7 -20 -7 -3 -1 -49 -17 -102 -36 -66 -23 -98 -39 -98 -50 0 -8 7 -40 16 -70
8 -30 24 -86 34 -125 10 -38 33 -122 50 -185 17 -63 36 -134 42 -157 5 -24 13
-43 16 -43 12 0 88 25 302 100 113 39 212 73 220 75 8 2 171 57 362 122 l346
118 93 85 c51 47 110 101 130 120 20 19 72 67 114 105 181 163 221 204 200
205 -11 1 -27 3 -35 4 -8 2 -64 7 -125 11 -60 4 -126 9 -145 10 -19 2 -46 4
-60 4 l-25 1 3 145 c3 129 5 145 20 145 10 0 55 -5 101 -10 46 -6 86 -9 88 -6
7 6 73 383 73 413 0 18 -9 23 -52 32 -29 6 -86 18 -126 27 l-72 16 2 256 3
257 -260 62 c-143 34 -265 62 -272 63 -6 0 -62 -60 -123 -134z m32 -881 c42
-6 47 -10 43 -29 -13 -62 -46 -308 -42 -313 3 -3 38 -8 78 -11 l73 -7 -65 -22
c-35 -12 -109 -38 -163 -57 -55 -20 -101 -34 -103 -32 -2 2 24 38 58 80 l62
77 -17 152 c-20 192 -21 180 7 174 12 -3 43 -9 69 -12z"/>
</g>
</svg>
